<svg width="1024" height="1024" xmlns="http://www.w3.org/2000/svg">
 <style type="text/css">.background{ fill:transparent; }
	.logo { fill: red }</style>

 <g>
  <title>background</title>
  <rect x="-1" y="-1" width="1026" height="1026" id="canvas_background" fill="none"/>
 </g>
 <g>
  <title>Layer 1</title>
  <g stroke="null" class="logo" id="svg_1">
   <path stroke="null" class="background" d="m1022.999955,1022.999955c-340.666653,0 -681.333289,0 -1021.999924,0c0,-340.666635 0,-681.333289 0,-1021.999924c340.666635,0 681.333289,0 1021.999924,0c0,340.666653 0,681.333289 0,1021.999924zm-512.995292,-1000.683925c-270.148655,6.132 -485.20665,210.726656 -486.277311,486.277293c-1.022,267.520655 206.395317,485.401311 484.233311,486.812632c269.856637,1.411339 487.299293,-208.779978 487.445293,-486.033954c0.097339,-272.046655 -211.797317,-480.096632 -485.401293,-487.055971z" id="svg_2"/>
   <path stroke="null" d="m510.004662,22.31603c273.652637,6.959339 485.498632,215.009317 485.401293,487.055971c-0.146,277.253976 -217.539995,487.445293 -487.445293,486.033954c-277.789315,-1.46 -485.255311,-219.291977 -484.233311,-486.812632c1.070661,-275.550637 216.128656,-480.193954 486.277311,-486.277293zm-59.859999,296.817976c-1.606,-2.725321 -3.212,-5.499321 -4.818,-8.224661c12.60466,0 25.987999,-2.774 37.619321,0.486661c39.468678,11.193339 79.326659,21.997339 117.189337,37.521999c104.68198,42.923999 205.032656,37.083999 302.949976,-19.564c17.325339,-10.025321 21.851339,-19.661321 11.923339,-38.543999c-100.301998,-191.016657 -339.985314,-286.889976 -544.969309,-219.827317c-200.993317,65.748659 -340.033975,262.021316 -317.111975,479.707311c19.564,185.711978 117.870658,314.873297 290.150654,386.413295c72.902659,30.270678 81.12732,32.898678 146.194658,-37.27866c15.81666,-17.033339 29.151321,-36.305338 43.605321,-54.603999c2.482,1.703339 4.964,3.406661 7.446,5.061339c-24.041321,38.105999 -48.033999,76.211998 -76.30932,121.082658c21.07266,-4.866661 38.543999,-5.256 52.121999,-12.702c41.51266,-22.727339 73.24332,-56.647999 93.829319,-99.085337c17.033339,-35.137321 30.221999,-72.172659 45.45466,-109.159319c2.530678,6.618661 5.158678,13.237339 7.640678,19.90466c12.069321,32.071339 31.779321,58.156677 60.39532,77.185338c47.985338,31.925321 88.329998,24.041321 117.675997,-25.209339c-8.322,-1.995321 -15.719339,-4.136661 -23.26266,-5.499321c-69.544677,-12.702 -118.308658,-49.639999 -140.111336,-118.746658c-9.246661,-29.297339 -18.15266,-58.789338 -29.10266,-87.453998c-11.193339,-29.199999 -24.673999,-57.572659 -37.181338,-86.285998c1.800678,52.121999 8.614,101.518658 11.485339,151.158657c2.968661,51.48932 -19.369339,96.019319 -44.57866,142.641997c-4.574678,-37.862678 -8.614,-71.637338 -12.702,-105.460676c-1.995339,-0.389321 -3.942,-0.778661 -5.937339,-1.119321c-23.213999,63.217999 -48.08266,125.365319 -108.039998,165.223318c0,-17.082 1.46,-32.557999 -0.389321,-47.54732c-1.898,-15.038 -5.158678,-30.513999 -11.242,-44.286678c-19.904678,-44.821999 -82.392659,-78.69398 -120.887997,-64.288659c-16.40066,6.132 -30.027339,19.856 -45.211338,30.319339c-7.835321,-16.108678 -16.741321,-34.21266 -41.123321,-32.022678c-30.903339,2.725339 -46.03866,23.165339 -56.161338,56.258677c-7.640661,-82.051998 7.640678,-151.693997 50.27266,-210.045317c15.427339,17.666 28.323999,37.229981 45.697999,51.391981c27.593999,22.484 61.319999,23.311339 94.948659,16.254678c36.402678,-7.689339 69.690677,-1.119339 98.160676,22.338c11.826,9.733321 19.953321,23.943999 33.92066,41.36666c-5.499339,-68.133338 -7.3,-130.475319 -50.175338,-181.867317c-24.235999,-29.053999 -63.655999,-36.597338 -96.603319,-18.493339c-5.937339,3.260661 -11.631339,6.910661 -18.055339,10.755339c-7.3,-32.411999 -20.92666,-60.395338 -50.661999,-72.221338c-26.47466,-10.512 -55.917999,-13.62666 -85.604659,-20.34266c-3.844661,-85.993998 71.442659,-174.567318 171.014657,-184.105996c-9.198,21.656678 -20.44,43.264678 -27.49666,66.186677c-7.738,25.111982 6.716,44.43266 25.257999,58.740659c18.88266,14.551321 43.653999,21.51066 63.509999,8.662661c11.388,-7.397339 13.18866,-29.345999 19.272,-44.675999zm148.676657,119.525337c3.65,0.681321 7.251321,1.654661 10.95,1.946661c57.76732,4.428661 114.123319,15.81666 165.417979,43.41066c54.944677,29.54066 111.057337,28.95666 169.846657,16.206c23.797999,-5.158661 27.350678,-14.989321 18.542,-34.699339c-18.29866,3.65 -35.52666,7.105339 -53.92266,10.804c41.901999,-61.076659 53.387338,-102.978658 27.837339,-124.294658c-19.272,29.297339 -38.008678,59.227338 -58.205338,88.086677c-12.507321,17.909321 -28.08066,24.381982 -52.02466,16.644c-74.021998,-23.895339 -150.574657,-26.912678 -228.441316,-18.104zm265.768637,227.954638c92.466677,-26.47466 101.372676,-49.88332 95.532676,-90.81198c-46.768678,21.851321 -94.510659,44.18932 -139.040658,64.969981c14.843321,51.683999 29.881321,103.951998 44.821999,155.733336c45.989981,-48.666677 42.047981,-50.905338 -1.314018,-129.891336zm-307.329975,-173.204657c-25.01466,-46.33066 -84.04732,-67.25732 -120.01198,-42.38866c34.845321,29.491999 73.291981,44.237999 120.01198,42.38866z" id="svg_3"/>
   <path stroke="null" class="background" d="m450.144664,319.134006c-6.083339,15.33 -7.884,37.27866 -19.174678,44.57866c-19.856,12.848 -44.62732,5.888678 -63.509981,-8.662661c-18.590678,-14.308 -32.995999,-33.62866 -25.257999,-58.740659c7.056661,-22.921999 18.29866,-44.481338 27.49666,-66.186659c-99.571998,9.538661 -174.859318,98.063319 -171.014657,184.105978c29.735339,6.716 59.129999,9.830661 85.604659,20.34266c29.735339,11.826 43.361999,39.809338 50.661999,72.221338c6.424,-3.844661 12.118,-7.494661 18.055339,-10.755339c32.947321,-18.104 72.318659,-10.512 96.603319,18.493339c42.875338,51.391999 44.72466,113.685319 50.175338,181.867317c-14.016,-17.374 -22.094678,-31.633321 -33.920678,-41.36666c-28.469982,-23.457339 -61.806659,-30.027339 -98.160659,-22.338c-33.62866,7.105339 -67.354659,6.229339 -94.948659,-16.25466c-17.374,-14.113339 -30.27066,-33.677339 -45.697999,-51.391999c-42.631999,58.35132 -57.91332,127.993319 -50.27266,210.045317c10.122661,-33.093339 25.257999,-53.53332 56.161338,-56.258659c24.43066,-2.141339 33.33666,15.914 41.123321,32.02266c15.184,-10.463321 28.761999,-24.13866 45.211338,-30.319321c38.495321,-14.405339 100.983319,19.46666 120.887997,64.288659c6.132,13.77266 9.344,29.24866 11.242,44.28666c1.898,15.038 0.389321,30.465339 0.389321,47.54732c59.957338,-39.857999 84.825998,-101.956658 108.039998,-165.223318c1.995339,0.389339 3.942,0.778661 5.937339,1.119339c4.088,33.823321 8.127321,67.597999 12.702,105.460658c25.209321,-46.573999 47.54732,-91.152659 44.57866,-142.641997c-2.871339,-49.639999 -9.636,-99.085319 -11.485339,-151.158657c12.507339,28.713339 25.987999,57.037338 37.181338,86.285998c10.95,28.66466 19.90466,58.156659 29.10266,87.453998c21.754,69.106659 70.566659,106.093319 140.111336,118.746658c7.543321,1.362661 14.892,3.504 23.26266,5.499339c-29.345999,49.25066 -69.690659,57.134659 -117.675997,25.209321c-28.66466,-19.02866 -48.325999,-45.16266 -60.39532,-77.18532c-2.530678,-6.667339 -5.11,-13.286 -7.640678,-19.904678c-15.23266,36.986678 -28.421321,74.021998 -45.45466,109.159337c-20.586,42.437321 -52.31666,76.357998 -93.829319,99.085319c-13.578,7.446 -31.000678,7.835339 -52.121999,12.702c28.275321,-44.87066 52.31666,-82.976659 76.30932,-121.082658c-2.482,-1.703321 -4.964,-3.406661 -7.446,-5.061321c-14.454,18.25 -27.78866,37.57066 -43.605321,54.603981c-65.067338,70.128677 -73.291998,67.500677 -146.194658,37.278678c-172.279996,-71.539998 -270.586655,-200.701335 -290.150654,-386.413313c-22.921999,-217.734656 116.069997,-413.958634 317.111975,-479.707311c204.983995,-67.062659 444.667312,28.859339 544.969309,219.827317c9.928,18.882678 5.402,28.518678 -11.923339,38.543999c-97.917319,56.696677 -198.267996,62.487999 -302.949976,19.564c-37.86266,-15.52466 -77.720659,-26.32866 -117.189337,-37.521999c-11.68,-3.309321 -25.063321,-0.486661 -37.619321,-0.486661c1.508661,2.822661 3.114661,5.596661 4.720661,8.322z" id="svg_4"/>
   <path stroke="null" class="background" d="m598.821321,438.659342c77.866659,-8.808678 154.467979,-5.791339 228.441316,18.104c23.895321,7.689321 39.46866,1.265321 52.02466,-16.644c20.19666,-28.907999 38.933338,-58.789338 58.20532,-88.086677c25.549999,21.316 14.064678,63.217999 -27.837321,124.294658c18.396,-3.698661 35.67266,-7.153982 53.92266,-10.803982c8.808661,19.71 5.256,29.54066 -18.542,34.699321c-58.78932,12.75066 -114.853319,13.33466 -169.846657,-16.206c-51.29466,-27.593999 -107.650658,-38.933321 -165.417979,-43.41066c-3.698678,-0.292 -7.3,-1.314 -10.95,-1.946661z" id="svg_5"/>
   <path stroke="null" class="background" d="m864.589958,666.61398c43.313338,78.985998 47.303999,81.224659 1.265339,129.939997c-14.892,-51.78132 -29.929999,-104.097998 -44.821999,-155.733318c44.529999,-20.829339 92.271998,-43.11866 139.040658,-64.969999c5.937339,40.92866 -3.017339,64.288659 -95.483998,90.763319z" id="svg_6"/>
   <path stroke="null" class="background" d="m557.259983,493.409323c-46.67132,1.849339 -85.166659,-12.89666 -120.011997,-42.38866c35.915999,-24.86866 94.948676,-3.942 120.011997,42.38866z" id="svg_7"/>
  </g>
 </g>
</svg>