<?xml version="1.0" encoding="utf-8"?>
<!-- Generator: Adobe Illustrator 23.0.4, SVG Export Plug-In . SVG Version: 6.00 Build 0)  -->
<svg version="1.1" id="图层_1"
	xmlns="http://www.w3.org/2000/svg"
	xmlns:xlink="http://www.w3.org/1999/xlink" x="0px" y="0px" viewBox="0 0 800 600" style="enable-background:new 0 0 800 600;" xml:space="preserve">
	<style type="text/css">
	.background{ fill:transparent; }
	.logo { fill: #ffffff }
	</style>
	<g class="logo">
		<path class="background" d="M506,406c-70,0-140,0-210,0c0-70,0-140,0-210c70,0,140,0,210,0C506,266,506,336,506,406z M400.59,200.38
		c-55.51,1.26-99.7,43.3-99.92,99.92c-0.21,54.97,42.41,99.74,99.5,100.03c55.45,0.29,100.13-42.9,100.16-99.87
		C500.35,244.56,456.81,201.81,400.59,200.38z"/>
		<path d="M400.59,200.38c56.23,1.43,99.76,44.18,99.74,100.08c-0.03,56.97-44.7,100.16-100.16,99.87
		c-57.08-0.3-99.71-45.06-99.5-100.03C300.89,243.68,345.08,201.63,400.59,200.38z M388.29,261.37c-0.33-0.56-0.66-1.13-0.99-1.69
		c2.59,0,5.34-0.57,7.73,0.1c8.11,2.3,16.3,4.52,24.08,7.71c21.51,8.82,42.13,7.62,62.25-4.02c3.56-2.06,4.49-4.04,2.45-7.92
		c-20.61-39.25-69.86-58.95-111.98-45.17c-41.3,13.51-69.87,53.84-65.16,98.57c4.02,38.16,24.22,64.7,59.62,79.4
		c14.98,6.22,16.67,6.76,30.04-7.66c3.25-3.5,5.99-7.46,8.96-11.22c0.51,0.35,1.02,0.7,1.53,1.04c-4.94,7.83-9.87,15.66-15.68,24.88
		c4.33-1,7.92-1.08,10.71-2.61c8.53-4.67,15.05-11.64,19.28-20.36c3.5-7.22,6.21-14.83,9.34-22.43c0.52,1.36,1.06,2.72,1.57,4.09
		c2.48,6.59,6.53,11.95,12.41,15.86c9.86,6.56,18.15,4.94,24.18-5.18c-1.71-0.41-3.23-0.85-4.78-1.13
		c-14.29-2.61-24.31-10.2-28.79-24.4c-1.9-6.02-3.73-12.08-5.98-17.97c-2.3-6-5.07-11.83-7.64-17.73
		c0.37,10.71,1.77,20.86,2.36,31.06c0.61,10.58-3.98,19.73-9.16,29.31c-0.94-7.78-1.77-14.72-2.61-21.67
		c-0.41-0.08-0.81-0.16-1.22-0.23c-4.77,12.99-9.88,25.76-22.2,33.95c0-3.51,0.3-6.69-0.08-9.77c-0.39-3.09-1.06-6.27-2.31-9.1
		c-4.09-9.21-16.93-16.17-24.84-13.21c-3.37,1.26-6.17,4.08-9.29,6.23c-1.61-3.31-3.44-7.03-8.45-6.58
		c-6.35,0.56-9.46,4.76-11.54,11.56c-1.57-16.86,1.57-31.17,10.33-43.16c3.17,3.63,5.82,7.65,9.39,10.56
		c5.67,4.62,12.6,4.79,19.51,3.34c7.48-1.58,14.32-0.23,20.17,4.59c2.43,2,4.1,4.92,6.97,8.5c-1.13-14-1.5-26.81-10.31-37.37
		c-4.98-5.97-13.08-7.52-19.85-3.8c-1.22,0.67-2.39,1.42-3.71,2.21c-1.5-6.66-4.3-12.41-10.41-14.84
		c-5.44-2.16-11.49-2.8-17.59-4.18c-0.79-17.67,14.68-35.87,35.14-37.83c-1.89,4.45-4.2,8.89-5.65,13.6
		c-1.59,5.16,1.38,9.13,5.19,12.07c3.88,2.99,8.97,4.42,13.05,1.78C386.67,269.03,387.04,264.52,388.29,261.37z M418.84,285.93
		c0.75,0.14,1.49,0.34,2.25,0.4c11.87,0.91,23.45,3.25,33.99,8.92c11.29,6.07,22.82,5.95,34.9,3.33c4.89-1.06,5.62-3.08,3.81-7.13
		c-3.76,0.75-7.3,1.46-11.08,2.22c8.61-12.55,10.97-21.16,5.72-25.54c-3.96,6.02-7.81,12.17-11.96,18.1
		c-2.57,3.68-5.77,5.01-10.69,3.42C450.57,284.74,434.84,284.12,418.84,285.93z M473.45,332.77c19-5.44,20.83-10.25,19.63-18.66
		c-9.61,4.49-19.42,9.08-28.57,13.35c3.05,10.62,6.14,21.36,9.21,32C483.17,349.46,482.36,349,473.45,332.77z M410.3,297.18
		c-5.14-9.52-17.27-13.82-24.66-8.71C392.8,294.53,400.7,297.56,410.3,297.18z"/>
		<path class="background" d="M388.29,261.37c-1.25,3.15-1.62,7.66-3.94,9.16c-4.08,2.64-9.17,1.21-13.05-1.78
		c-3.82-2.94-6.78-6.91-5.19-12.07c1.45-4.71,3.76-9.14,5.65-13.6c-20.46,1.96-35.93,20.15-35.14,37.83
		c6.11,1.38,12.15,2.02,17.59,4.18c6.11,2.43,8.91,8.18,10.41,14.84c1.32-0.79,2.49-1.54,3.71-2.21c6.77-3.72,14.86-2.16,19.85,3.8
		c8.81,10.56,9.19,23.36,10.31,37.37c-2.88-3.57-4.54-6.5-6.97-8.5c-5.85-4.82-12.7-6.17-20.17-4.59
		c-6.91,1.46-13.84,1.28-19.51-3.34c-3.57-2.9-6.22-6.92-9.39-10.56c-8.76,11.99-11.9,26.3-10.33,43.16
		c2.08-6.8,5.19-11,11.54-11.56c5.02-0.44,6.85,3.27,8.45,6.58c3.12-2.15,5.91-4.96,9.29-6.23c7.91-2.96,20.75,4,24.84,13.21
		c1.26,2.83,1.92,6.01,2.31,9.1c0.39,3.09,0.08,6.26,0.08,9.77c12.32-8.19,17.43-20.95,22.2-33.95c0.41,0.08,0.81,0.16,1.22,0.23
		c0.84,6.95,1.67,13.89,2.61,21.67c5.18-9.57,9.77-18.73,9.16-29.31c-0.59-10.2-1.98-20.36-2.36-31.06
		c2.57,5.9,5.34,11.72,7.64,17.73c2.25,5.89,4.09,11.95,5.98,17.97c4.47,14.2,14.5,21.8,28.79,24.4c1.55,0.28,3.06,0.72,4.78,1.13
		c-6.03,10.12-14.32,11.74-24.18,5.18c-5.89-3.91-9.93-9.28-12.41-15.86c-0.52-1.37-1.05-2.73-1.57-4.09
		c-3.13,7.6-5.84,15.21-9.34,22.43c-4.23,8.72-10.75,15.69-19.28,20.36c-2.79,1.53-6.37,1.61-10.71,2.61
		c5.81-9.22,10.75-17.05,15.68-24.88c-0.51-0.35-1.02-0.7-1.53-1.04c-2.97,3.75-5.71,7.72-8.96,11.22
		c-13.37,14.41-15.06,13.87-30.04,7.66c-35.4-14.7-55.6-41.24-59.62-79.4c-4.71-44.74,23.85-85.06,65.16-98.57
		c42.12-13.78,91.37,5.93,111.98,45.17c2.04,3.88,1.11,5.86-2.45,7.92c-20.12,11.65-40.74,12.84-62.25,4.02
		c-7.78-3.19-15.97-5.41-24.08-7.71c-2.4-0.68-5.15-0.1-7.73-0.1C387.63,260.24,387.96,260.81,388.29,261.37z"/>
		<path class="background" d="M418.84,285.93c16-1.81,31.74-1.19,46.94,3.72c4.91,1.58,8.11,0.26,10.69-3.42c4.15-5.94,8-12.08,11.96-18.1
		c5.25,4.38,2.89,12.99-5.72,25.54c3.78-0.76,7.33-1.47,11.08-2.22c1.81,4.05,1.08,6.07-3.81,7.13c-12.08,2.62-23.6,2.74-34.9-3.33
		c-10.54-5.67-22.12-8-33.99-8.92C420.33,286.27,419.59,286.06,418.84,285.93z"/>
		<path class="background" d="M473.45,332.77c8.9,16.23,9.72,16.69,0.26,26.7c-3.06-10.64-6.15-21.39-9.21-32
		c9.15-4.28,18.96-8.86,28.57-13.35C494.29,322.53,492.45,327.33,473.45,332.77z"/>
		<path class="background" d="M410.3,297.18c-9.59,0.38-17.5-2.65-24.66-8.71C393.02,283.36,405.15,287.66,410.3,297.18z"/>
	</g>
</svg>
